<?xml version="1.0" encoding="UTF-8"?>
<svg width="35.28mm" height="13.73mm" version="1.1" viewBox="0 0 35.28 13.73" xmlns="http://www.w3.org/2000/svg" xmlns:cc="http://creativecommons.org/ns#" xmlns:dc="http://purl.org/dc/elements/1.1/" xmlns:rdf="http://www.w3.org/1999/02/22-rdf-syntax-ns#">
<title>PTC logo</title>
<desc>A software and service company based in Boston, Massachusetts</desc>
 <defs>
  <clipPath id="vlpa">
   <path d="m53.38 69.29h100v38.91h-100z"/>
  </clipPath>
 </defs>
 <metadata>
  <rdf:RDF>
   <cc:Work rdf:about="">
    <dc:format>image/svg+xml</dc:format>
    <dc:type rdf:resource="http://purl.org/dc/dcmitype/StillImage"/>
    <dc:title/>
   </cc:Work>
  </rdf:RDF>
 </metadata>
 <g transform="translate(-.5024 88.51)">
  <g transform="matrix(.3526 0 0 -.3528 -18.31 -50.34)">
   <g transform="translate(70.24 108.2)">
    <path d="m0 0-16.86-9.739v-8.609l16.86 9.807 9.483-5.44-1.886-1.097-7.597 4.368-6.606-3.821 15.1-8.742 8.369 4.9v8.633z" style="fill:#656263"/>
   </g>
   <path transform="translate(53.38 87.66)" d="m0 0v-8.656l16.86-9.718 16.86 9.718v8.632l-16.86-9.809-9.483 5.441 1.888 1.096 7.595-4.367 6.606 3.82-15.1 8.743z" style="fill:#6bc04b"/>
   <g clip-path="url(#vlpa)">
    <g transform="translate(110.4 96.15)">
     <path d="m0 0c-2.049 0-3.667-0.709-4.856-2.124-1.137-1.341-1.707-3.035-1.707-5.083 0-2.049 0.57-3.743 1.707-5.083 1.189-1.417 2.807-2.125 4.856-2.125 2.023 0 3.665 0.708 4.931 2.125 1.188 1.34 1.783 3.034 1.783 5.083 0 2.048-0.595 3.742-1.783 5.083-1.266 1.415-2.908 2.124-4.931 2.124m-6.411-0.758c1.516 2.225 3.78 3.338 6.79 3.338 2.732 0 4.944-0.949 6.639-2.846 1.693-1.871 2.541-4.185 2.541-6.941 0-2.757-0.848-5.071-2.541-6.941-1.695-1.897-3.971-2.846-6.829-2.846-2.857 0-5.058 1.124-6.6 3.376v-10.58h-2.845v26.48h2.845z" style="fill:#656263"/>
    </g>
    <g transform="translate(125.8 79.46)">
     <path d="m0 0v16.46h-3.87v2.503h3.87v6.79h2.845v-6.79h4.362v-2.503h-4.362v-16.46z" style="fill:#656263"/>
    </g>
    <g transform="translate(145 81.74)">
     <path d="m0 0c1.214 0 2.289 0.341 3.224 1.025 0.936 0.682 1.618 1.567 2.048 2.655h3.073c-0.581-1.872-1.643-3.377-3.186-4.514-1.618-1.164-3.541-1.745-5.765-1.745-2.784 0-5.047 0.948-6.791 2.845-1.694 1.846-2.542 4.159-2.542 6.942 0 2.781 0.848 5.095 2.542 6.941 1.744 1.896 4.007 2.845 6.791 2.845 2.224 0 4.147-0.582 5.765-1.745 1.543-1.138 2.605-2.643 3.186-4.514h-3.073c-0.43 1.087-1.112 1.973-2.048 2.655-0.935 0.684-2.01 1.025-3.224 1.025-1.215 0-2.244-0.191-3.092-0.569-0.847-0.38-1.562-0.899-2.143-1.556-1.24-1.365-1.858-3.06-1.858-5.082 0-2.024 0.618-3.718 1.858-5.084 1.264-1.416 3.009-2.124 5.235-2.124" style="fill:#656263"/>
    </g>
   </g>
  </g>
 </g>
</svg>
